<?xml version="1.0" encoding="UTF-8" standalone="no"?><!DOCTYPE svg PUBLIC "-//W3C//DTD SVG 1.1//EN" "http://www.w3.org/Graphics/SVG/1.1/DTD/svg11.dtd"><svg width="100%" height="100%" viewBox="0 0 288 157" version="1.1" xmlns="http://www.w3.org/2000/svg" xmlns:xlink="http://www.w3.org/1999/xlink" xml:space="preserve" xmlns:serif="http://www.serif.com/" style="fill-rule:evenodd;clip-rule:evenodd;stroke-linejoin:round;stroke-miterlimit:1.41421;"><g><path d="M162.918,74.039c-1.218,-2.697 -3.741,-4.698 -7.569,-4.698c-3.828,0 -6.352,2.001 -7.57,4.698c-0.696,1.653 -0.957,2.871 -1.044,4.872l17.227,0c-0.087,-2.001 -0.348,-3.219 -1.044,-4.872Zm-16.183,12.615c0,5.83 3.568,10.093 9.918,10.093c4.96,0 7.396,-1.392 10.267,-4.263l6.873,6.699c-4.611,4.611 -9.048,7.135 -17.227,7.135c-10.701,0 -20.967,-4.873 -20.967,-23.23c0,-14.791 8.004,-23.144 19.75,-23.144c12.615,0 19.75,9.223 19.75,21.664l0,5.046l-28.364,0Z" style="fill:#231f20;fill-rule:nonzero;"/><path d="M199.717,105.795c-9.223,0 -13.138,-6.525 -13.138,-12.963l0,-22.448l-4.785,0l0,-8.613l4.785,0l0,-13.399l11.311,0l0,13.399l8.005,0l0,8.613l-8.005,0l0,21.751c0,2.611 1.217,4.09 3.915,4.09l4.09,0l0,9.57l-6.178,0Z" style="fill:#231f20;fill-rule:nonzero;"/><path d="M242.173,105.795l0,-27.667c0,-6.003 -3.829,-8.004 -7.396,-8.004c-3.567,0 -7.308,2.088 -7.308,8.004l0,27.667l-11.311,0l0,-61.948l11.311,0l0,20.795c3.045,-3.133 6.873,-4.698 10.875,-4.698c9.919,0 15.139,6.96 15.139,16.53l0,29.321l-11.31,0Z" style="fill:#231f20;fill-rule:nonzero;"/><path d="M59.078,104.394l-8.772,0l-16.512,-44.805l11.782,0l9.116,27.692l9.029,-27.692l11.782,0l-16.425,44.805Z" style="fill:#231f20;fill-rule:nonzero;"/><path d="M102.912,54.921c-14.775,0 -26.794,12.11 -26.794,26.996c0,12.459 8.423,22.969 19.831,26.066l0,-0.047c1.61,0.391 3.346,0.567 5.069,0.567c3.651,0 7.234,-0.79 9.4,-1.999c3.405,-1.899 5.703,-4.468 6.831,-7.635c1.209,-3.394 1.082,-6.737 -0.377,-9.937c-0.763,-1.668 -1.971,-3.376 -3.592,-5.079l-3.398,-3.556c-3.404,-3.553 -4.616,-5.223 -5.049,-6.022c-0.497,-0.881 -0.992,-2.206 -0.526,-3.515c0.26,-0.731 1.046,-2.109 3.382,-3.137c1.364,-0.6 2.112,-0.723 2.412,-0.746l0.754,-2.944c-4.119,-1.227 -12.646,-1.104 -16.507,7.929c-1.137,2.658 -1.19,5.555 -0.155,8.376c0.912,2.49 2.851,5.272 5.93,8.503l2.931,3.084c2.132,2.227 2.916,3.363 3.195,3.917c0.538,1.081 0.576,2.234 0.116,3.526c-0.426,1.194 -1.045,1.938 -2.21,2.653c-0.645,0.396 -4.103,2.304 -8.847,0.935l-0.001,0.001c-8.771,-3.127 -15.059,-11.488 -15.059,-21.334c0,-12.517 10.146,-22.665 22.664,-22.665c12.518,0 22.665,10.148 22.665,22.665c0,4.341 -1.223,8.397 -3.34,11.843l3.107,3.291c2.755,-4.241 4.363,-9.304 4.363,-14.74c0,-14.886 -12.021,-26.996 -26.795,-26.996Z" style="fill:#231f20;fill-rule:nonzero;"/></g></svg>